        <svg width="80" height="80" viewBox="0 0 80 80" fill="none" xmlns="http://www.w3.org/2000/svg">

          <!-- Outer ring -->
          <circle cx="40" cy="40" r="37" stroke="#326CE5" stroke-width="1.5" stroke-dasharray="4 3" opacity="0.5"/>

          <!-- 6 helm spokes (k8s helm wheel) doubled as PCB traces -->
          <g stroke="#326CE5" stroke-width="2" stroke-linecap="round" opacity="0.9">
            <!-- top -->
            <line x1="40" y1="26" x2="40" y2="12"/>
            <!-- top-right -->
            <line x1="54" y1="31.87" x2="64.1" y2="26"/>
            <!-- bottom-right -->
            <line x1="54" y1="48.13" x2="64.1" y2="54"/>
            <!-- bottom -->
            <line x1="40" y1="54" x2="40" y2="68"/>
            <!-- bottom-left -->
            <line x1="26" y1="48.13" x2="15.9" y2="54"/>
            <!-- top-left -->
            <line x1="26" y1="31.87" x2="15.9" y2="26"/>
          </g>

          <!-- Spoke-end circles (k8s style) -->
          <g fill="#326CE5">
            <circle cx="40" cy="12" r="3.5"/>
            <circle cx="64.1" cy="26" r="3.5"/>
            <circle cx="64.1" cy="54" r="3.5"/>
            <circle cx="40" cy="68" r="3.5"/>
            <circle cx="15.9" cy="54" r="3.5"/>
            <circle cx="15.9" cy="26" r="3.5"/>
          </g>

          <!-- Inner PCB chip square -->
          <rect x="26" y="26" width="28" height="28" rx="4" fill="transparent" stroke="#1a56b0" stroke-width="1.5"/>

          <!-- Chip pins (left) -->
          <g stroke="#1a56b0" stroke-width="1.5" stroke-linecap="round">
            <line x1="18" y1="31" x2="26" y2="31"/>
            <line x1="18" y1="37" x2="26" y2="37"/>
            <line x1="18" y1="43" x2="26" y2="43"/>
            <line x1="18" y1="49" x2="26" y2="49"/>
          </g>
          <!-- Chip pins (right) -->
          <g stroke="#1a56b0" stroke-width="1.5" stroke-linecap="round">
            <line x1="54" y1="31" x2="62" y2="31"/>
            <line x1="54" y1="37" x2="62" y2="37"/>
            <line x1="54" y1="43" x2="62" y2="43"/>
            <line x1="54" y1="49" x2="62" y2="49"/>
          </g>
          <!-- Chip pins (top) -->
          <g stroke="#1a56b0" stroke-width="1.5" stroke-linecap="round">
            <line x1="31" y1="18" x2="31" y2="26"/>
            <line x1="37" y1="18" x2="37" y2="26"/>
            <line x1="43" y1="18" x2="43" y2="26"/>
            <line x1="49" y1="18" x2="49" y2="26"/>
          </g>
          <!-- Chip pins (bottom) -->
          <g stroke="#1a56b0" stroke-width="1.5" stroke-linecap="round">
            <line x1="31" y1="54" x2="31" y2="62"/>
            <line x1="37" y1="54" x2="37" y2="62"/>
            <line x1="43" y1="54" x2="43" y2="62"/>
            <line x1="49" y1="54" x2="49" y2="62"/>
          </g>

          <!-- Center wifi/cloud symbol: three arcs -->
          <g fill="none" stroke="#326CE5" stroke-width="2" stroke-linecap="round">
            <!-- Smallest arc -->
            <path d="M36.5 43 Q40 38 43.5 43"/>
            <!-- Medium arc -->
            <path d="M33.5 40.5 Q40 33.5 46.5 40.5"/>
            <!-- Largest arc -->
            <path d="M31 38 Q40 29 49 38"/>
          </g>
          <!-- Signal dot -->
          <circle cx="40" cy="45.5" r="1.8" fill="#326CE5"/>
        </svg>
