<svg xmlns="http://www.w3.org/2000/svg" viewBox="0 0 1040 566" font-family="-apple-system,BlinkMacSystemFont,Segoe UI,Helvetica,Arial,sans-serif">
<rect width="1040" height="566" fill="#ffffff"/>
<line x1="200" y1="30" x2="200" y2="536" stroke="#94a3b8" stroke-width="1"/>
<line x1="334.95" y1="30" x2="334.95" y2="536" stroke="#16a34a" stroke-width="1.5" stroke-dasharray="6 4"/>
<text x="342.95" y="22" font-size="13" fill="#16a34a">runc baseline</text>
<text x="182" y="58.0" text-anchor="end" font-size="15" fill="#0f172a">runc</text>
<rect x="200" y="37.0" width="134.95" height="32" fill="#16a34a"/>
<text x="267.47" y="59.0" text-anchor="middle" font-size="16" font-weight="700" fill="#ffffff">1.0x</text>
<text x="348.95" y="58.0" font-size="15" fill="#475569">487 pods</text>
<text x="182" y="92.0" text-anchor="end" font-size="15" fill="#475569">urunc</text>
<text x="182" y="112.0" text-anchor="end" font-size="15" fill="#0f172a">rumprun/spt</text>
<rect x="200" y="83.0" width="141.54" height="32" fill="#6d28d9"/>
<text x="270.77" y="105.0" text-anchor="middle" font-size="16" font-weight="700" fill="#ffffff">1.1x</text>
<text x="355.54" y="104.0" font-size="15" fill="#475569">430 pods</text>
<text x="182" y="138.0" text-anchor="end" font-size="15" fill="#475569">urunc</text>
<text x="182" y="158.0" text-anchor="end" font-size="15" fill="#0f172a">rumprun/hvt</text>
<rect x="200" y="129.0" width="153.87" height="32" fill="#6d28d9"/>
<text x="276.93" y="151.0" text-anchor="middle" font-size="16" font-weight="700" fill="#ffffff">1.3x</text>
<text x="367.87" y="150.0" font-size="15" fill="#475569">380 pods</text>
<text x="182" y="184.0" text-anchor="end" font-size="15" fill="#475569">urunc</text>
<text x="182" y="204.0" text-anchor="end" font-size="15" fill="#0f172a">mirage/spt</text>
<rect x="200" y="175.0" width="165.28" height="32" fill="#6d28d9"/>
<text x="282.64" y="197.0" text-anchor="middle" font-size="16" font-weight="700" fill="#ffffff">1.5x</text>
<text x="379.28" y="196.0" font-size="15" fill="#475569">330 pods</text>
<text x="182" y="230.0" text-anchor="end" font-size="15" fill="#475569">urunc</text>
<text x="182" y="250.0" text-anchor="end" font-size="15" fill="#0f172a">mirage/hvt</text>
<rect x="200" y="221.0" width="165.28" height="32" fill="#6d28d9"/>
<text x="282.64" y="243.0" text-anchor="middle" font-size="16" font-weight="700" fill="#ffffff">1.5x</text>
<text x="379.28" y="242.0" font-size="15" fill="#475569">330 pods</text>
<text x="182" y="276.0" text-anchor="end" font-size="15" fill="#475569">urunc</text>
<text x="182" y="296.0" text-anchor="end" font-size="15" fill="#0f172a">unikraft/qemu</text>
<rect x="200" y="267.0" width="181.05" height="32" fill="#6d28d9"/>
<text x="290.53" y="289.0" text-anchor="middle" font-size="16" font-weight="700" fill="#ffffff">1.8x</text>
<text x="395.05" y="288.0" font-size="15" fill="#475569">265 pods</text>
<text x="182" y="322.0" text-anchor="end" font-size="15" fill="#475569">urunc</text>
<text x="182" y="342.0" text-anchor="end" font-size="15" fill="#0f172a">linux/fc</text>
<rect x="200" y="313.0" width="204.66" height="32" fill="#6d28d9"/>
<text x="302.33" y="335.0" text-anchor="middle" font-size="16" font-weight="700" fill="#ffffff">2.3x</text>
<text x="418.66" y="334.0" font-size="15" fill="#475569">210 pods</text>
<text x="182" y="380.0" text-anchor="end" font-size="15" fill="#0f172a">gVisor</text>
<rect x="200" y="359.0" width="225.81" height="32" fill="#d97706"/>
<text x="312.91" y="381.0" text-anchor="middle" font-size="16" font-weight="700" fill="#ffffff">2.8x</text>
<text x="439.81" y="380.0" font-size="15" fill="#475569">176 pods</text>
<text x="182" y="414.0" text-anchor="end" font-size="15" fill="#475569">urunc</text>
<text x="182" y="434.0" text-anchor="end" font-size="15" fill="#0f172a">linux/qemu</text>
<rect x="200" y="405.0" width="233.74" height="32" fill="#6d28d9"/>
<text x="316.87" y="427.0" text-anchor="middle" font-size="16" font-weight="700" fill="#ffffff">3.0x</text>
<text x="447.74" y="426.0" font-size="15" fill="#475569">165 pods</text>
<text x="182" y="472.0" text-anchor="end" font-size="15" fill="#0f172a">Kata-FC</text>
<rect x="200" y="451.0" width="369.57" height="32" fill="#b91c1c"/>
<text x="384.79" y="473.0" text-anchor="middle" font-size="16" font-weight="700" fill="#ffffff">7.5x</text>
<text x="583.57" y="472.0" font-size="15" fill="#475569">65 pods</text>
<text x="182" y="518.0" text-anchor="end" font-size="15" fill="#0f172a">Kata-QEMU</text>
<rect x="200" y="497.0" width="650.00" height="32" fill="#b91c1c"/>
<text x="525.00" y="519.0" text-anchor="middle" font-size="16" font-weight="700" fill="#ffffff">23.2x</text>
<text x="864.00" y="518.0" font-size="15" fill="#475569">21 pods</text>
</svg>
