<?xml version="1.0" encoding="UTF-8" standalone="no"?>
<svg
   xmlns:dc="http://purl.org/dc/elements/1.1/"
   xmlns:cc="http://creativecommons.org/ns#"
   xmlns:rdf="http://www.w3.org/1999/02/22-rdf-syntax-ns#"
   xmlns:svg="http://www.w3.org/2000/svg"
   xmlns="http://www.w3.org/2000/svg"
   xml:space="preserve"
   style="enable-background:new 0 0 300 270;"
   viewBox="0 0 300 270"
   y="0px"
   x="0px"
   id="Layer_1"
   version="1.1"><metadata
   id="metadata41"><rdf:RDF><cc:Work
       rdf:about=""><dc:format>image/svg+xml</dc:format><dc:type
         rdf:resource="http://purl.org/dc/dcmitype/StillImage" /><dc:title></dc:title></cc:Work></rdf:RDF></metadata><defs
   id="defs39" />
<style
   id="style2"
   type="text/css">
	.st0{fill:#000081;}
	.st1{fill:#FFFFFF;}
	.st2{fill:#0000FF;}
</style>
<g
   id="g34">
	<g
   id="g14">
		<path
   id="path4"
   d="M131.1,139.9c0,10.3-8.3,18.6-18.6,18.6H96.8V38.7h34.4V139.9z"
   class="st0" />
		<path
   id="path6"
   d="M168.9,57.3c0-10.3,8.3-18.6,18.6-18.6h15.8v119.8h-34.4V57.3z"
   class="st0" />
		<path
   id="path8"
   d="M192.4,128c11.2,0,20.4-9.1,20.4-20.4c0-11.2-9-20.2-20.1-20.4c0-9.5-7.8-17.2-17.3-17.2    c-2.5,0-4.8,0.5-7,1.5c-6.1-9.3-16.6-15.5-28.6-15.5c-17.9,0-32.6,13.8-34,31.3c-10.4,0.9-18.6,9.6-18.6,20.3    c0,11.2,9.1,20.4,20.4,20.4H192.4z"
   class="st1" />
		<g
   id="g12">
			<path
   id="path10"
   d="M96.8,38.7h35.6l70.9,119.8h-34.4L96.8,38.7z"
   class="st2" />
		</g>
	</g>
	<g
   style="fill:#ffffff;fill-opacity:1"
   id="g32">
		<path
   style="fill:#ffffff;fill-opacity:1"
   id="path16"
   d="M27.8,200.6h8.9v3.1h0.1c2-2.4,4.8-3.7,8.3-3.7c5.7,0,10.5,4.1,10.5,11.6v19.2h-8.9v-17c0-4-2.4-6-5-6    c-2.8,0-5,2.1-5,6.1v16.9h-8.9V200.6z"
   class="st0" />
		<path
   style="fill:#ffffff;fill-opacity:1"
   id="path18"
   d="M88.8,230.7h-9v-3.1h-0.1c-2,2.4-4.8,3.7-8.3,3.7c-5.7,0-10.4-4.1-10.4-11.6v-19.2h8.9v17c0,4,2.4,5.9,5,5.9    c2.8,0,5-2.1,5-6v-16.9h9V230.7z"
   class="st0" />
		<path
   style="fill:#ffffff;fill-opacity:1"
   id="path20"
   d="M104.5,227.6h-0.1v3.1h-8.9v-44.4h8.9v17.3h0.1c2-2.3,4.8-3.7,8.8-3.7c6.9,0,13.5,5,13.5,15.7    c0,10.6-6.7,15.7-13.8,15.7C109,231.3,106.4,229.8,104.5,227.6z M117.7,215.6c0-5-3.4-7.9-7-7.9c-3.6,0-6.9,2.8-6.9,7.9    c0,4.9,3.3,7.9,6.9,7.9C114.7,223.5,117.7,220.7,117.7,215.6z"
   class="st0" />
		<path
   style="fill:#ffffff;fill-opacity:1"
   id="path22"
   d="M135.8,196.7c-2.8,0-5.1-2.3-5.1-5.2c0-2.8,2.3-5.2,5.1-5.2c2.9,0,5.2,2.4,5.2,5.2    C141,194.4,138.7,196.7,135.8,196.7z M131.3,200.6h9v30.2h-9V200.6z"
   class="st0" />
		<path
   style="fill:#ffffff;fill-opacity:1"
   id="path24"
   d="M165.6,194c-1-0.4-2.2-0.5-3.1-0.5c-2.3,0-3.7,1.3-3.7,4.3v2.8H178v30.2h-8.9V208h-10.2v22.7H150V208h-3.7    v-7.5h3.7V197c0-6.2,3.8-11.2,10.4-11.2c2.4,0,4.5,0.4,6.1,0.9L165.6,194z M173.6,196.7c-2.8,0-5.1-2.3-5.1-5.1    c0-2.8,2.3-5.1,5.1-5.1c2.8,0,5.1,2.3,5.1,5.1C178.7,194.3,176.4,196.7,173.6,196.7z"
   class="st0" />
		<path
   style="fill:#ffffff;fill-opacity:1"
   id="path26"
   d="M211.5,225.8c-2.9,3.2-6.4,5.5-12.4,5.5c-8.9,0-15.5-6.4-15.5-15.7c0-9.2,6.5-15.7,15.6-15.7    c5.6,0,9.2,2,12,5.1l-5.8,5.5c-1.8-1.9-3.6-2.9-6-2.9c-4,0-6.9,3.1-6.9,7.9c0,5,3,7.9,7,7.9c2.7,0,4.3-1,6.2-3L211.5,225.8z"
   class="st0" />
		<path
   style="fill:#ffffff;fill-opacity:1"
   id="path28"
   d="M243.1,230.7h-9v-3.1H234c-2,2.4-4.8,3.7-8.3,3.7c-5.7,0-10.4-4.1-10.4-11.6v-19.2h8.9v17c0,4,2.4,5.9,5,5.9    c2.8,0,5-2.1,5-6v-16.9h9V230.7z"
   class="st0" />
		<path
   style="fill:#ffffff;fill-opacity:1"
   id="path30"
   d="M248,227.9l4.8-6c2.5,1.9,4.7,2.6,7,2.6c2,0,3.4-0.5,3.4-2c0-1.8-2.3-2.4-5.4-3.6c-3.6-1.4-8.6-3.4-8.6-9.4    c0-6.1,5.1-9.6,11.2-9.6c4.8,0,8.2,1.1,11.1,3.4l-4.6,5.6c-1.8-1.4-4-2.1-6-2.1c-1.9,0-2.7,1.1-2.7,2.3c0,2.5,4.2,3.4,6.2,4.1    c4.3,1.5,7.8,4.1,7.8,8.6c0,6.7-6.2,9.5-12.6,9.5C255.5,231.3,251.8,230.4,248,227.9z"
   class="st0" />
	</g>
</g>
</svg>