<?xml version="1.0" encoding="UTF-8" standalone="no"?>
<svg
   xmlns:dc="http://purl.org/dc/elements/1.1/"
   xmlns:cc="http://creativecommons.org/ns#"
   xmlns:rdf="http://www.w3.org/1999/02/22-rdf-syntax-ns#"
   xmlns:svg="http://www.w3.org/2000/svg"
   xmlns="http://www.w3.org/2000/svg"
   xmlns:sodipodi="http://sodipodi.sourceforge.net/DTD/sodipodi-0.dtd"
   xmlns:inkscape="http://www.inkscape.org/namespaces/inkscape"
   xml:space="preserve"
   viewBox="0 0 244.39999 192.60001"
   y="0px"
   x="0px"
   id="Layer_1"
   version="1.1"
   sodipodi:docname="n_logo_negative_centered_cropped.svg"
   width="244.39999"
   height="192.60001"
   inkscape:version="0.92.4 (5da689c313, 2019-01-14)"><sodipodi:namedview
   pagecolor="#ffffff"
   bordercolor="#666666"
   borderopacity="1"
   objecttolerance="10"
   gridtolerance="10"
   guidetolerance="10"
   inkscape:pageopacity="0"
   inkscape:pageshadow="2"
   inkscape:window-width="2560"
   inkscape:window-height="1373"
   id="namedview22"
   showgrid="false"
   inkscape:zoom="0.87407407"
   inkscape:cx="4.3610169"
   inkscape:cy="96.3"
   inkscape:window-x="0"
   inkscape:window-y="0"
   inkscape:window-maximized="1"
   inkscape:current-layer="Layer_1" /><metadata
   id="metadata41"><rdf:RDF><cc:Work
       rdf:about=""><dc:format>image/svg+xml</dc:format><dc:type
         rdf:resource="http://purl.org/dc/dcmitype/StillImage" /><dc:title /></cc:Work></rdf:RDF></metadata><defs
   id="defs39" />
<style
   id="style2"
   type="text/css">
	.st0{fill:#000081;}
	.st1{fill:#FFFFFF;}
	.st2{fill:#0000FF;}
</style>
<g
   id="g34"
   transform="translate(-27.8,-38.7)">
	<g
   id="g14">
		<path
   id="path4"
   d="m 131.1,139.9 c 0,10.3 -8.3,18.6 -18.6,18.6 H 96.8 V 38.7 h 34.4 v 101.2 z"
   class="st0"
   inkscape:connector-curvature="0"
   style="fill:#000081" />
		<path
   id="path6"
   d="m 168.9,57.3 c 0,-10.3 8.3,-18.6 18.6,-18.6 h 15.8 v 119.8 h -34.4 z"
   class="st0"
   inkscape:connector-curvature="0"
   style="fill:#000081" />
		<path
   id="path8"
   d="m 192.4,128 c 11.2,0 20.4,-9.1 20.4,-20.4 0,-11.2 -9,-20.2 -20.1,-20.4 0,-9.5 -7.8,-17.2 -17.3,-17.2 -2.5,0 -4.8,0.5 -7,1.5 C 162.3,62.2 151.8,56 139.8,56 c -17.9,0 -32.6,13.8 -34,31.3 -10.4,0.9 -18.6,9.6 -18.6,20.3 0,11.2 9.1,20.4 20.4,20.4 z"
   class="st1"
   inkscape:connector-curvature="0"
   style="fill:#ffffff" />
		<g
   id="g12">
			<path
   id="path10"
   d="m 96.8,38.7 h 35.6 l 70.9,119.8 h -34.4 z"
   class="st2"
   inkscape:connector-curvature="0"
   style="fill:#0000ff" />
		</g>
	</g>
	<g
   style="fill:#ffffff;fill-opacity:1"
   id="g32">
		<path
   style="fill:#ffffff;fill-opacity:1"
   id="path16"
   d="m 27.8,200.6 h 8.9 v 3.1 h 0.1 c 2,-2.4 4.8,-3.7 8.3,-3.7 5.7,0 10.5,4.1 10.5,11.6 v 19.2 h -8.9 v -17 c 0,-4 -2.4,-6 -5,-6 -2.8,0 -5,2.1 -5,6.1 v 16.9 h -8.9 z"
   class="st0"
   inkscape:connector-curvature="0" />
		<path
   style="fill:#ffffff;fill-opacity:1"
   id="path18"
   d="m 88.8,230.7 h -9 v -3.1 h -0.1 c -2,2.4 -4.8,3.7 -8.3,3.7 -5.7,0 -10.4,-4.1 -10.4,-11.6 v -19.2 h 8.9 v 17 c 0,4 2.4,5.9 5,5.9 2.8,0 5,-2.1 5,-6 v -16.9 h 9 v 30.2 z"
   class="st0"
   inkscape:connector-curvature="0" />
		<path
   style="fill:#ffffff;fill-opacity:1"
   id="path20"
   d="m 104.5,227.6 h -0.1 v 3.1 h -8.9 v -44.4 h 8.9 v 17.3 h 0.1 c 2,-2.3 4.8,-3.7 8.8,-3.7 6.9,0 13.5,5 13.5,15.7 0,10.6 -6.7,15.7 -13.8,15.7 -4,0 -6.6,-1.5 -8.5,-3.7 z m 13.2,-12 c 0,-5 -3.4,-7.9 -7,-7.9 -3.6,0 -6.9,2.8 -6.9,7.9 0,4.9 3.3,7.9 6.9,7.9 4,0 7,-2.8 7,-7.9 z"
   class="st0"
   inkscape:connector-curvature="0" />
		<path
   style="fill:#ffffff;fill-opacity:1"
   id="path22"
   d="m 135.8,196.7 c -2.8,0 -5.1,-2.3 -5.1,-5.2 0,-2.8 2.3,-5.2 5.1,-5.2 2.9,0 5.2,2.4 5.2,5.2 0,2.9 -2.3,5.2 -5.2,5.2 z m -4.5,3.9 h 9 v 30.2 h -9 z"
   class="st0"
   inkscape:connector-curvature="0" />
		<path
   style="fill:#ffffff;fill-opacity:1"
   id="path24"
   d="m 165.6,194 c -1,-0.4 -2.2,-0.5 -3.1,-0.5 -2.3,0 -3.7,1.3 -3.7,4.3 v 2.8 H 178 v 30.2 h -8.9 V 208 h -10.2 v 22.7 H 150 V 208 h -3.7 v -7.5 H 150 V 197 c 0,-6.2 3.8,-11.2 10.4,-11.2 2.4,0 4.5,0.4 6.1,0.9 z m 8,2.7 c -2.8,0 -5.1,-2.3 -5.1,-5.1 0,-2.8 2.3,-5.1 5.1,-5.1 2.8,0 5.1,2.3 5.1,5.1 0,2.7 -2.3,5.1 -5.1,5.1 z"
   class="st0"
   inkscape:connector-curvature="0" />
		<path
   style="fill:#ffffff;fill-opacity:1"
   id="path26"
   d="m 211.5,225.8 c -2.9,3.2 -6.4,5.5 -12.4,5.5 -8.9,0 -15.5,-6.4 -15.5,-15.7 0,-9.2 6.5,-15.7 15.6,-15.7 5.6,0 9.2,2 12,5.1 l -5.8,5.5 c -1.8,-1.9 -3.6,-2.9 -6,-2.9 -4,0 -6.9,3.1 -6.9,7.9 0,5 3,7.9 7,7.9 2.7,0 4.3,-1 6.2,-3 z"
   class="st0"
   inkscape:connector-curvature="0" />
		<path
   style="fill:#ffffff;fill-opacity:1"
   id="path28"
   d="m 243.1,230.7 h -9 v -3.1 H 234 c -2,2.4 -4.8,3.7 -8.3,3.7 -5.7,0 -10.4,-4.1 -10.4,-11.6 v -19.2 h 8.9 v 17 c 0,4 2.4,5.9 5,5.9 2.8,0 5,-2.1 5,-6 v -16.9 h 9 v 30.2 z"
   class="st0"
   inkscape:connector-curvature="0" />
		<path
   style="fill:#ffffff;fill-opacity:1"
   id="path30"
   d="m 248,227.9 4.8,-6 c 2.5,1.9 4.7,2.6 7,2.6 2,0 3.4,-0.5 3.4,-2 0,-1.8 -2.3,-2.4 -5.4,-3.6 -3.6,-1.4 -8.6,-3.4 -8.6,-9.4 0,-6.1 5.1,-9.6 11.2,-9.6 4.8,0 8.2,1.1 11.1,3.4 l -4.6,5.6 c -1.8,-1.4 -4,-2.1 -6,-2.1 -1.9,0 -2.7,1.1 -2.7,2.3 0,2.5 4.2,3.4 6.2,4.1 4.3,1.5 7.8,4.1 7.8,8.6 0,6.7 -6.2,9.5 -12.6,9.5 -4.1,0 -7.8,-0.9 -11.6,-3.4 z"
   class="st0"
   inkscape:connector-curvature="0" />
	</g>
</g>
</svg>